<?xml version="1.0" encoding="UTF-8"?>
<svg xmlns="http://www.w3.org/2000/svg" xmlns:xlink="http://www.w3.org/1999/xlink" width="32px" height="32px" viewBox="0 0 32 32" version="1.1">
<defs>
<clipPath id="clip1">
  <path d="M 2.25 5 L 25 5 L 25 27.5 L 2.25 27.5 Z M 2.25 5 "/>
</clipPath>
<linearGradient id="linear0" gradientUnits="userSpaceOnUse" x1="9.44447" y1="57.146999" x2="36.9506" y2="22.764299" gradientTransform="matrix(0.5,0,0,0.5,0,0)">
<stop offset="0" style="stop-color:rgb(23.137255%,91.764706%,38.431373%);stop-opacity:1;"/>
<stop offset="0.543588" style="stop-color:rgb(3.137255%,58.039216%,98.039216%);stop-opacity:1;"/>
<stop offset="1" style="stop-color:rgb(46.27451%,30.588235%,100%);stop-opacity:1;"/>
</linearGradient>
<clipPath id="clip2">
  <path d="M 10 0 L 29.75 0 L 29.75 20 L 10 20 Z M 10 0 "/>
</clipPath>
<linearGradient id="linear1" gradientUnits="userSpaceOnUse" x1="58.382099" y1="0.89418" x2="30.8829" y2="28.3934" gradientTransform="matrix(0.5,0,0,0.5,0,0)">
<stop offset="0" style="stop-color:rgb(23.137255%,91.764706%,38.431373%);stop-opacity:1;"/>
<stop offset="0.543588" style="stop-color:rgb(3.137255%,58.039216%,98.039216%);stop-opacity:1;"/>
<stop offset="1" style="stop-color:rgb(46.27451%,30.588235%,100%);stop-opacity:1;"/>
</linearGradient>
<filter id="alpha" filterUnits="objectBoundingBox" x="0%" y="0%" width="100%" height="100%">
  <feColorMatrix type="matrix" in="SourceGraphic" values="0 0 0 0 1 0 0 0 0 1 0 0 0 0 1 0 0 0 1 0"/>
</filter>
<mask id="mask0">
  <g filter="url(#alpha)">
<rect x="0" y="0" width="32" height="32" style="fill:rgb(0%,0%,0%);fill-opacity:0.898039;stroke:none;"/>
  </g>
</mask>
<clipPath id="clip3">
  <rect x="0" y="0" width="32" height="32"/>
</clipPath>
<g id="surface5" clip-path="url(#clip3)">
<path style=" stroke:none;fill-rule:nonzero;fill:rgb(0.392157%,0.392157%,0.392157%);fill-opacity:1;" d="M 2.746094 28.972656 L 3.601562 28.972656 L 3.601562 27.785156 L 4.253906 27.785156 C 5.125 27.785156 5.828125 27.308594 5.828125 26.390625 L 5.828125 26.378906 C 5.828125 25.570312 5.265625 25.011719 4.335938 25.011719 L 2.746094 25.011719 Z M 3.601562 27.007812 L 3.601562 25.796875 L 4.265625 25.796875 C 4.691406 25.796875 4.957031 26.007812 4.957031 26.398438 L 4.957031 26.410156 C 4.957031 26.75 4.707031 27.007812 4.28125 27.007812 Z M 3.601562 27.007812 "/>
<path style=" stroke:none;fill-rule:nonzero;fill:rgb(0.392157%,0.392157%,0.392157%);fill-opacity:1;" d="M 6.460938 28.972656 L 7.316406 28.972656 L 7.316406 27.703125 L 7.988281 27.703125 L 8.824219 28.972656 L 9.824219 28.972656 L 8.871094 27.558594 C 9.367188 27.371094 9.707031 26.96875 9.707031 26.328125 L 9.707031 26.316406 C 9.707031 25.945312 9.589844 25.632812 9.375 25.414062 C 9.117188 25.152344 8.734375 25.011719 8.238281 25.011719 L 6.460938 25.011719 Z M 7.316406 26.933594 L 7.316406 25.796875 L 8.167969 25.796875 C 8.582031 25.796875 8.839844 25.988281 8.839844 26.363281 L 8.839844 26.375 C 8.839844 26.707031 8.601562 26.933594 8.183594 26.933594 Z M 7.316406 26.933594 "/>
<path style=" stroke:none;fill-rule:nonzero;fill:rgb(0.392157%,0.392157%,0.392157%);fill-opacity:1;" d="M 10.476562 28.972656 L 13.441406 28.972656 L 13.441406 28.195312 L 11.328125 28.195312 L 11.328125 27.363281 L 13.164062 27.363281 L 13.164062 26.589844 L 11.328125 26.589844 L 11.328125 25.785156 L 13.414062 25.785156 L 13.414062 25.011719 L 10.476562 25.011719 Z M 10.476562 28.972656 "/>
<path style=" stroke:none;fill-rule:nonzero;fill:rgb(0.392157%,0.392157%,0.392157%);fill-opacity:1;" d="M 15.441406 29 L 16.199219 29 L 17.773438 25.011719 L 16.847656 25.011719 L 15.832031 27.800781 L 14.8125 25.011719 L 13.867188 25.011719 Z M 15.441406 29 "/>
<path style=" stroke:none;fill-rule:nonzero;fill:rgb(0.392157%,0.392157%,0.392157%);fill-opacity:1;" d="M 18.410156 28.972656 L 19.269531 28.972656 L 19.269531 25.011719 L 18.410156 25.011719 Z M 18.410156 28.972656 "/>
<path style=" stroke:none;fill-rule:nonzero;fill:rgb(0.392157%,0.392157%,0.392157%);fill-opacity:1;" d="M 20.242188 28.972656 L 23.203125 28.972656 L 23.203125 28.195312 L 21.089844 28.195312 L 21.089844 27.363281 L 22.925781 27.363281 L 22.925781 26.589844 L 21.089844 26.589844 L 21.089844 25.785156 L 23.175781 25.785156 L 23.175781 25.011719 L 20.242188 25.011719 Z M 20.242188 28.972656 "/>
<path style=" stroke:none;fill-rule:nonzero;fill:rgb(0.392157%,0.392157%,0.392157%);fill-opacity:1;" d="M 24.992188 29 L 25.738281 29 L 26.617188 26.410156 L 27.496094 29 L 28.242188 29 L 29.570312 25.011719 L 28.675781 25.011719 L 27.867188 27.691406 L 26.996094 25 L 26.261719 25 L 25.386719 27.691406 L 24.582031 25.011719 L 23.664062 25.011719 Z M 24.992188 29 "/>
</g>
</defs>
<g id="surface1">
<g clip-path="url(#clip1)" clip-rule="nonzero">
<path style=" stroke:none;fill-rule:nonzero;fill:url(#linear0);" d="M 13.324219 5.355469 C 19.433594 5.355469 24.394531 10.316406 24.394531 16.425781 L 24.394531 16.429688 C 24.394531 22.539062 19.433594 27.5 13.324219 27.5 C 7.210938 27.5 2.25 22.539062 2.25 16.425781 C 2.25 10.316406 7.210938 5.355469 13.324219 5.355469 Z M 13.324219 5.355469 "/>
</g>
<g clip-path="url(#clip2)" clip-rule="nonzero">
<path style=" stroke:none;fill-rule:nonzero;fill:url(#linear1);" d="M 14.230469 19.402344 L 25.867188 19.402344 C 28.011719 19.402344 29.75 17.664062 29.75 15.519531 L 29.75 3.882812 C 29.75 1.738281 28.011719 0 25.867188 0 L 14.230469 0 C 12.085938 0 10.347656 1.738281 10.347656 3.882812 L 10.347656 15.519531 C 10.347656 17.664062 12.085938 19.402344 14.230469 19.402344 Z M 14.230469 19.402344 "/>
</g>
<path style=" stroke:none;fill-rule:nonzero;fill:rgb(0%,0%,0%);fill-opacity:1;" d="M 10.347656 5.820312 L 23.929688 5.820312 L 23.929688 19.402344 L 10.347656 19.402344 Z M 10.347656 5.820312 "/>
<path style=" stroke:none;fill-rule:nonzero;fill:rgb(100%,100%,100%);fill-opacity:1;" d="M 12.289062 15.519531 L 19.804688 15.519531 L 19.804688 17.460938 L 12.289062 17.460938 Z M 12.289062 15.519531 "/>
<path style=" stroke:none;fill-rule:nonzero;fill:rgb(99.215686%,71.372551%,5.098039%);fill-opacity:1;" d="M 3.5 22 L 28.5 22 C 30.433594 22 32 23.566406 32 25.5 L 32 28.5 C 32 30.433594 30.433594 32 28.5 32 L 3.5 32 C 1.566406 32 0 30.433594 0 28.5 L 0 25.5 C 0 23.566406 1.566406 22 3.5 22 Z M 3.5 22 "/>
<use xlink:href="#surface5" mask="url(#mask0)"/>
</g>
</svg>
