<?xml version="1.0" encoding="UTF-8" standalone="no"?>
<svg
   width="64px"
   height="64px"
   viewBox="0 0 32 32"
   version="1.1"
   id="svg108"
   xmlns="http://www.w3.org/2000/svg"
   xmlns:svg="http://www.w3.org/2000/svg">
  <defs
     id="defs93">
    <clipPath
       id="clip1">
      <path
         d="M 2.25 5 L 25 5 L 25 27.5 L 2.25 27.5 Z"
         id="path73" />
    </clipPath>
    <linearGradient
       id="linear0"
       gradientUnits="userSpaceOnUse"
       x1="9.44447"
       y1="57.146999"
       x2="36.9506"
       y2="22.764299"
       gradientTransform="scale(0.5)">
      <stop offset="0" style="stop-color:rgb(100%,0%,0%)" id="stop76" />
      <stop offset="0.543588" style="stop-color:rgb(100%,50%,0%)" id="stop78" />
      <stop offset="1" style="stop-color:rgb(100%,65%,0%)" id="stop80" />
    </linearGradient>
    <clipPath
       id="clip2">
      <path
         d="M 10 0 L 29.75 0 L 29.75 20 L 10 20 Z"
         id="path83" />
    </clipPath>
    <linearGradient
       id="linear1"
       gradientUnits="userSpaceOnUse"
       x1="58.382099"
       y1="0.89418"
       x2="30.8829"
       y2="28.3934"
       gradientTransform="scale(0.5)">
      <stop offset="0" style="stop-color:rgb(100%,0%,0%)" id="stop86" />
      <stop offset="0.543588" style="stop-color:rgb(100%,50%,0%)" id="stop88" />
      <stop offset="1" style="stop-color:rgb(100%,65%,0%)" id="stop90" />
    </linearGradient>
  </defs>
  <g
     id="surface1"
     transform="matrix(1.1636364,0,0,1.1636364,-2.6181818,0)">
    <g
       clip-path="url(#clip1)"
       id="g97">
      <path
         style="fill:url(#linear0)"
         d="m 13.324219,5.355469 c 6.109375,0 11.070312,4.960937 11.070312,11.070312 C 24.394531,22.539062 19.433594,27.5 13.324219,27.5 7.210938,27.5 2.25,22.539062 2.25,16.425781 2.25,10.316406 7.210938,5.355469 13.324219,5.355469 Z"
         id="path95" />
    </g>
    <g
       clip-path="url(#clip2)"
       id="g101">
      <path
         style="fill:url(#linear1)"
         d="m 14.230469,19.402344 h 11.636719 c 2.144531,0 3.882812,-1.738282 3.882812,-3.882813 V 3.882812 C 29.75,1.738281 28.011719,0 25.867188,0 H 14.230469 c -2.144531,0 -3.882813,1.738281 -3.882813,3.882812 v 11.636719 c 0,2.144531 1.738282,3.882813 3.882813,3.882813 z"
         id="path99" />
    </g>
    <path
       style="fill:#000000"
       d="M 10.347656,5.820312 H 23.929688 V 19.402344 H 10.347656 Z"
       id="path103" />
    <path
       style="fill:#ffffff"
       d="m 12.289062,15.519531 h 7.515626 v 1.941407 h -7.515626 z"
       id="path105" />
  </g>
</svg>
